<?xml version="1.0" encoding="UTF-8" standalone="no"?>
<svg
   id="svg4306"
   width="22"
   height="22"
   version="1.1"
   style="enable-background:new"
   sodipodi:docname="keepabove.svg"
   inkscape:version="1.3.2 (091e20ef0f, 2023-11-25)"
   xmlns:inkscape="http://www.inkscape.org/namespaces/inkscape"
   xmlns:sodipodi="http://sodipodi.sourceforge.net/DTD/sodipodi-0.dtd"
   xmlns="http://www.w3.org/2000/svg"
   xmlns:svg="http://www.w3.org/2000/svg"
   xmlns:rdf="http://www.w3.org/1999/02/22-rdf-syntax-ns#"
   xmlns:cc="http://creativecommons.org/ns#"
   xmlns:dc="http://purl.org/dc/elements/1.1/">
  <metadata
     id="metadata28">
    <rdf:RDF>
      <cc:Work
         rdf:about="">
        <dc:format>image/svg+xml</dc:format>
        <dc:type
           rdf:resource="http://purl.org/dc/dcmitype/StillImage" />
      </cc:Work>
    </rdf:RDF>
  </metadata>
  <defs
     id="defs26" />
  <sodipodi:namedview
     inkscape:document-rotation="0"
     pagecolor="#ffffff"
     bordercolor="#000000"
     borderopacity="1"
     objecttolerance="10"
     gridtolerance="10"
     guidetolerance="10"
     inkscape:pageopacity="0"
     inkscape:pageshadow="2"
     inkscape:window-width="1920"
     inkscape:window-height="1021"
     id="namedview24"
     showgrid="false"
     inkscape:zoom="16.000001"
     inkscape:cx="-24.749998"
     inkscape:cy="20.843749"
     inkscape:window-x="0"
     inkscape:window-y="0"
     inkscape:window-maximized="1"
     inkscape:current-layer="svg4306"
     inkscape:snap-bbox="true"
     inkscape:bbox-nodes="true"
     inkscape:lockguides="false"
     inkscape:pagecheckerboard="0"
     inkscape:showpageshadow="2"
     inkscape:deskcolor="#cccccc">
    <inkscape:grid
       type="xygrid"
       id="grid853"
       originx="-44"
       originy="0"
       spacingy="1"
       spacingx="1"
       units="px"
       visible="false" />
  </sodipodi:namedview>
  <style
     type="text/css"
     id="current-color-scheme" />
  <g
     id="active-center"
     transform="translate(-42.874992,-2.125002)"
     style="display:inline;enable-background:new">
    <path
       id="rect4995-7"
       style="fill:#ffffff;fill-opacity:0.66666669;enable-background:new"
       d="m -41.125008,2.125002 v 1 15 1 h 17 v -1 -15 -1 z m 1,1 h 15 v 15 h -15 z"
       transform="translate(44)" />
    <path
       d="m -31.505286,6 c -0.01047,1.46e-4 -0.02093,0.0011 -0.03136,0.0023 -0.07198,0.0088 -0.138948,0.04243 -0.190135,0.09571 l -4.177297,4.331325 c -0.06112,0.0623 -0.09566,0.1474 -0.09592,0.236349 -2.87e-4,0.08887 0.03363,0.17417 0.09435,0.237016 0.06064,0.06277 0.14296,0.09781 0.228706,0.09728 h 8.353327 c 0.08581,9.93e-4 0.168267,-0.03419 0.229063,-0.09696 0.06083,-0.06279 0.09484,-0.148148 0.09455,-0.237176 -2.07e-4,-0.08893 -0.03481,-0.174097 -0.09585,-0.236497 l -4.178035,-4.331452 c -0.06129,-0.06366 -0.144826,-0.09885 -0.231501,-0.09764 z"
       fill-rule="evenodd"
       id="path2"
       style="fill:#fefefe;fill-opacity:0.66666669;stroke-width:0.0186929;enable-background:new"
       transform="translate(42.874992,2.125002)" />
  </g>
  <g
     id="hover-center"
     transform="translate(0.07887268,22.014719)"
     style="display:inline;enable-background:new">
    <rect
       style="fill:#ffffff;fill-opacity:0.18;enable-background:new"
       id="rect20508"
       width="15"
       height="15"
       x="-19.078873"
       y="-21.014719" />
    <path
       id="rect4995-7-3"
       style="fill:#ffffff;fill-opacity:0.80000001;enable-background:new"
       d="m -20.078873,-22.014719 v 1 15 1 h 17.0000003 v -1 -15 -1 z m 1,1 h 15.0000003 v 15 H -19.078873 Z" />
    <path
       d="m -11.505286,6 c -0.01047,1.46e-4 -0.02093,0.0011 -0.03136,0.0023 -0.07198,0.0088 -0.138948,0.04243 -0.190135,0.09571 l -4.177297,4.331325 c -0.06112,0.0623 -0.09566,0.1474 -0.09592,0.236349 -2.87e-4,0.08887 0.03363,0.17417 0.09435,0.237016 0.06064,0.06277 0.14296,0.09781 0.228706,0.09728 h 8.353327 c 0.08581,9.93e-4 0.168267,-0.03419 0.229063,-0.09696 0.06083,-0.06279 0.09484,-0.148148 0.09455,-0.237176 -2.07e-4,-0.08893 -0.03481,-0.174097 -0.09585,-0.236497 l -4.178035,-4.331452 c -0.06129,-0.06366 -0.144826,-0.09885 -0.231501,-0.09764 z"
       fill-rule="evenodd"
       id="path593"
       style="fill:#fefefe;fill-opacity:0.80000001;stroke-width:0.0186929;enable-background:new"
       transform="translate(-0.07887268,-22.014719)" />
  </g>
  <g
     id="pressed-center"
     transform="translate(0,22)"
     style="display:inline;enable-background:new">
    <rect
       style="fill:#b0b0b0;fill-opacity:0.18;enable-background:new"
       id="rect20508-7"
       width="15"
       height="15"
       x="4"
       y="-19" />
    <path
       id="rect4995-7-3-3"
       style="display:inline;fill:#cccccc;fill-opacity:0.61;enable-background:new"
       d="m 3,-20 v 1 15 1 h 17 v -1 -15 -1 z m 1,1 H 19 V -4 H 4 Z" />
    <path
       d="m 11.494714,8 c -0.01047,1.46e-4 -0.02093,0.0011 -0.03136,0.0023 -0.07198,0.0088 -0.138948,0.04243 -0.190135,0.09571 l -4.177297,4.331325 c -0.06112,0.0623 -0.09566,0.1474 -0.09592,0.236349 -2.87e-4,0.08887 0.03363,0.17417 0.09435,0.237016 0.06064,0.06277 0.14296,0.09781 0.228706,0.09728 h 8.353327 c 0.08581,9.93e-4 0.168267,-0.03419 0.229063,-0.09696 0.06083,-0.06279 0.09484,-0.148148 0.09455,-0.237176 -2.07e-4,-0.08893 -0.03481,-0.174097 -0.09585,-0.236497 L 11.726113,8.097895 c -0.06129,-0.06366 -0.144826,-0.09885 -0.231501,-0.09764 z"
       fill-rule="evenodd"
       id="path599"
       style="fill:#fefefe;fill-opacity:0.58;stroke-width:0.0186929;enable-background:new"
       transform="translate(0,-22)" />
  </g>
  <g
     id="pressed-inactive-center"
     transform="translate(-0.02999902,21.916588)"
     style="display:inline;enable-background:new">
    <rect
       style="fill:#b0b0b0;fill-opacity:0.18;enable-background:new"
       id="rect20508-7-5"
       width="15"
       height="15"
       x="4.0299993"
       y="26.083412"
       transform="translate(0,-22)" />
    <path
       id="rect4995-7-3-3-2"
       style="fill:#cccccc;fill-opacity:0.61;enable-background:new"
       inkscape:label="rect4995-7-3-3-2"
       d="m 3.029999,25.083412 v 1 15 1 h 17 v -1 -15 -1 z m 1,1 h 15 v 15 h -15 z"
       transform="translate(0,-22)" />
    <path
       d="m 11.494714,31 c -0.01047,1.46e-4 -0.02093,0.0011 -0.03136,0.0023 -0.07198,0.0088 -0.138948,0.04243 -0.190135,0.09571 l -4.177297,4.331325 c -0.06112,0.0623 -0.09566,0.1474 -0.09592,0.236349 -2.87e-4,0.08887 0.03363,0.17417 0.09435,0.237016 0.06064,0.06277 0.14296,0.09781 0.228706,0.09728 h 8.353327 c 0.08581,9.93e-4 0.168267,-0.03419 0.229063,-0.09696 0.06083,-0.06279 0.09484,-0.148148 0.09455,-0.237176 -2.07e-4,-0.08893 -0.03481,-0.174097 -0.09585,-0.236497 l -4.178035,-4.331452 c -0.06129,-0.06366 -0.144826,-0.09885 -0.231501,-0.09764 z"
       fill-rule="evenodd"
       id="path601"
       style="fill:#fefefe;fill-opacity:0.58;stroke-width:0.0186929;enable-background:new"
       transform="translate(0.02999902,-21.916588)" />
  </g>
  <g
     id="hover-inactive-center"
     transform="translate(-21.786983,22.284179)"
     style="display:inline;enable-background:new">
    <rect
       style="fill:#ffffff;fill-opacity:0.15;enable-background:new"
       id="rect20508-0"
       width="15"
       height="15"
       x="2.7869844"
       y="3.6716266" />
    <path
       id="rect4995-7-3-6"
       style="fill:#ffffff;fill-opacity:0.66666669;enable-background:new"
       d="m 1.786983,2.671627 v 1 15 1 h 17 v -1 -15 -1 z m 1,1 h 15 v 15 h -15 z" />
    <path
       d="m -11.505286,31 c -0.01047,1.46e-4 -0.02093,0.0011 -0.03136,0.0023 -0.07198,0.0088 -0.138948,0.04243 -0.190135,0.09571 l -4.177297,4.331325 c -0.06112,0.0623 -0.09566,0.1474 -0.09592,0.236349 -2.87e-4,0.08887 0.03363,0.17417 0.09435,0.237016 0.06064,0.06277 0.14296,0.09781 0.228706,0.09728 h 8.353327 c 0.08581,9.93e-4 0.168267,-0.03419 0.229063,-0.09696 0.06083,-0.06279 0.09484,-0.148148 0.09455,-0.237176 -2.07e-4,-0.08893 -0.03481,-0.174097 -0.09585,-0.236497 l -4.178035,-4.331452 c -0.06129,-0.06366 -0.144826,-0.09885 -0.231501,-0.09764 z"
       fill-rule="evenodd"
       id="path597"
       style="fill:#fefefe;fill-opacity:0.80000001;stroke-width:0.0186929;enable-background:new"
       transform="translate(21.786983,-22.284179)" />
  </g>
  <g
     id="inactive-center"
     transform="translate(-42.874992,22.874998)"
     style="display:inline;enable-background:new"
     inkscape:label="inactive-center">
    <path
       id="rect323"
       style="fill:#ffffff;fill-opacity:0.40000001;enable-background:new"
       d="m -41.125008,2.125002 v 1 15 1 h 17 v -1 -15 -1 z m 1,1 h 15 v 15 h -15 z"
       transform="translate(44)" />
    <path
       d="m -31.505286,31 c -0.01047,1.46e-4 -0.02093,0.0011 -0.03136,0.0023 -0.07198,0.0088 -0.138948,0.04243 -0.190135,0.09571 l -4.177297,4.331325 c -0.06112,0.0623 -0.09566,0.1474 -0.09592,0.236349 -2.87e-4,0.08887 0.03363,0.17417 0.09435,0.237016 0.06064,0.06277 0.14296,0.09781 0.228706,0.09728 h 8.353327 c 0.08581,9.93e-4 0.168267,-0.03419 0.229063,-0.09696 0.06083,-0.06279 0.09484,-0.148148 0.09455,-0.237176 -2.07e-4,-0.08893 -0.03481,-0.174097 -0.09585,-0.236497 l -4.178035,-4.331452 c -0.06129,-0.06366 -0.144826,-0.09885 -0.231501,-0.09764 z"
       fill-rule="evenodd"
       id="path595"
       style="fill:#fefefe;fill-opacity:0.4;stroke-width:0.0186929;enable-background:new"
       transform="translate(42.874992,-22.874998)" />
  </g>
</svg>
