<?xml version="1.0" encoding="UTF-8" standalone="no"?>
<!-- Created with Inkscape (http://www.inkscape.org/) -->

<svg
   width="450"
   height="300"
   viewBox="0 0 450 300"
   version="1.1"
   id="svg5"
   inkscape:version="1.2.1 (9c6d41e410, 2022-07-14, custom)"
   sodipodi:docname="decoration.svg"
   xmlns:inkscape="http://www.inkscape.org/namespaces/inkscape"
   xmlns:sodipodi="http://sodipodi.sourceforge.net/DTD/sodipodi-0.dtd"
   xmlns:xlink="http://www.w3.org/1999/xlink"
   xmlns="http://www.w3.org/2000/svg"
   xmlns:svg="http://www.w3.org/2000/svg">
  <sodipodi:namedview
     id="namedview7"
     pagecolor="#2b6992"
     bordercolor="#cccccc"
     borderopacity="1"
     inkscape:showpageshadow="false"
     inkscape:pageopacity="1"
     inkscape:pagecheckerboard="true"
     inkscape:deskcolor="#595959"
     inkscape:document-units="px"
     showgrid="true"
     showguides="true"
     inkscape:zoom="2.6516506"
     inkscape:cx="258.70678"
     inkscape:cy="140.85566"
     inkscape:window-width="1920"
     inkscape:window-height="1005"
     inkscape:window-x="0"
     inkscape:window-y="0"
     inkscape:window-maximized="1"
     inkscape:current-layer="decoration-bottom">
    <inkscape:grid
       type="xygrid"
       id="grid3227"
       empspacing="1"
       dotted="false"
       visible="false" />
  </sodipodi:namedview>
  <defs
     id="defs2">
    <linearGradient
       inkscape:collect="always"
       id="linearGradient7109">
      <stop
         style="stop-color:#ffffff;stop-opacity:0.55000001;"
         offset="0"
         id="stop7105" />
      <stop
         style="stop-color:#ffffff;stop-opacity:0.09;"
         offset="1"
         id="stop7107" />
    </linearGradient>
    <linearGradient
       inkscape:collect="always"
       id="eblem_inner">
      <stop
         style="stop-color:#ffffff;stop-opacity:0.47;"
         offset="0"
         id="stop7097" />
      <stop
         style="stop-color:#ffffff;stop-opacity:0;"
         offset="1"
         id="stop7099" />
    </linearGradient>
    <linearGradient
       inkscape:collect="always"
       id="window_right">
      <stop
         style="stop-color:#27292b;stop-opacity:0.60000002;"
         offset="0"
         id="stop3002" />
      <stop
         style="stop-color:#000000;stop-opacity:0.64999998;"
         offset="0.27098826"
         id="stop3004" />
    </linearGradient>
    <linearGradient
       inkscape:collect="always"
       id="shadow_gradient">
      <stop
         style="stop-color:#000000;stop-opacity:0.50684929;"
         offset="0"
         id="stop7574" />
      <stop
         style="stop-color:#000000;stop-opacity:0.14509804;"
         offset="0.4108108"
         id="stop1153" />
      <stop
         style="stop-color:#000000;stop-opacity:0;"
         offset="1"
         id="stop7576" />
    </linearGradient>
    <linearGradient
       inkscape:collect="always"
       xlink:href="#shadow_gradient"
       id="linearGradient7580"
       x1="255"
       y1="55"
       x2="255"
       y2="30"
       gradientUnits="userSpaceOnUse"
       gradientTransform="matrix(0.36551723,0,0,2,142.75862,-55)" />
    <linearGradient
       inkscape:collect="always"
       xlink:href="#shadow_gradient"
       id="linearGradient7712"
       x1="125"
       y1="-370"
       x2="125"
       y2="-395"
       gradientUnits="userSpaceOnUse"
       gradientTransform="matrix(1,0,0,2,0,370)" />
    <linearGradient
       inkscape:collect="always"
       xlink:href="#shadow_gradient"
       id="linearGradient7720"
       x1="135"
       y1="-80"
       x2="135"
       y2="-55"
       gradientUnits="userSpaceOnUse"
       gradientTransform="matrix(1,0,0,2,0,80)" />
    <linearGradient
       inkscape:collect="always"
       xlink:href="#shadow_gradient"
       id="linearGradient7728"
       x1="215"
       y1="240"
       x2="215"
       y2="265"
       gradientUnits="userSpaceOnUse"
       gradientTransform="matrix(0.36551724,0,0,2,142.75862,-240)" />
    <radialGradient
       inkscape:collect="always"
       xlink:href="#shadow_gradient"
       id="radialGradient7736"
       cx="370"
       cy="55"
       fx="370"
       fy="55"
       r="12.5"
       gradientUnits="userSpaceOnUse"
       gradientTransform="matrix(4,0,0,4,-1110,-165)" />
    <radialGradient
       inkscape:collect="always"
       xlink:href="#shadow_gradient"
       id="radialGradient7746"
       cx="370"
       cy="240"
       fx="370"
       fy="240"
       r="12.5"
       gradientUnits="userSpaceOnUse"
       gradientTransform="matrix(0,4,-4,0,1330,-1240)" />
    <radialGradient
       inkscape:collect="always"
       xlink:href="#shadow_gradient"
       id="radialGradient7754"
       cx="80"
       cy="55"
       fx="80"
       fy="55"
       r="12.5"
       gradientUnits="userSpaceOnUse"
       gradientTransform="matrix(0,-4,4,0,-140,375)" />
    <radialGradient
       inkscape:collect="always"
       xlink:href="#shadow_gradient"
       id="radialGradient7762"
       cx="80"
       cy="240"
       fx="80"
       fy="240"
       r="12.5"
       gradientUnits="userSpaceOnUse"
       gradientTransform="matrix(-4,0,0,-4,400,1200)" />
    <linearGradient
       inkscape:collect="always"
       xlink:href="#window_right"
       id="linearGradient3008"
       x1="278"
       y1="37.5"
       x2="400"
       y2="37.5"
       gradientUnits="userSpaceOnUse"
       gradientTransform="matrix(1,0,0,1.037037,0,2.111111)" />
    <linearGradient
       inkscape:collect="always"
       xlink:href="#window_right"
       id="linearGradient3981"
       gradientUnits="userSpaceOnUse"
       x1="278"
       y1="37.5"
       x2="400"
       y2="37.5"
       gradientTransform="matrix(1,0,0,6.8518519,0,-109.44444)" />
    <linearGradient
       inkscape:collect="always"
       xlink:href="#window_right"
       id="linearGradient4719"
       gradientUnits="userSpaceOnUse"
       gradientTransform="matrix(1,0,0,0.48148147,0,228.44443)"
       x1="278"
       y1="37.5"
       x2="400"
       y2="37.5" />
    <linearGradient
       inkscape:collect="always"
       xlink:href="#eblem_inner"
       id="linearGradient7103"
       x1="280"
       y1="40.5"
       x2="307"
       y2="40.5"
       gradientUnits="userSpaceOnUse" />
    <linearGradient
       inkscape:collect="always"
       xlink:href="#linearGradient7109"
       id="linearGradient7111"
       x1="279"
       y1="40.5"
       x2="308"
       y2="40.5"
       gradientUnits="userSpaceOnUse" />
    <linearGradient
       inkscape:collect="always"
       xlink:href="#shadow_gradient"
       id="linearGradient14104"
       gradientUnits="userSpaceOnUse"
       gradientTransform="matrix(0.31724137,0,0,2,252.62069,-55)"
       x1="255"
       y1="55"
       x2="255"
       y2="30" />
    <linearGradient
       inkscape:collect="always"
       xlink:href="#shadow_gradient"
       id="linearGradient14109"
       gradientUnits="userSpaceOnUse"
       gradientTransform="matrix(0.31724137,0,0,2,54.620689,-55)"
       x1="255"
       y1="55"
       x2="255"
       y2="30" />
    <linearGradient
       inkscape:collect="always"
       xlink:href="#shadow_gradient"
       id="linearGradient14115"
       gradientUnits="userSpaceOnUse"
       gradientTransform="matrix(0.31724138,0,0,2,54.620689,-240)"
       x1="215"
       y1="240"
       x2="215"
       y2="265" />
    <linearGradient
       inkscape:collect="always"
       xlink:href="#shadow_gradient"
       id="linearGradient14119"
       gradientUnits="userSpaceOnUse"
       gradientTransform="matrix(0.31724138,0,0,2,252.62069,-240)"
       x1="215"
       y1="240"
       x2="215"
       y2="265" />
    <linearGradient
       inkscape:collect="always"
       xlink:href="#shadow_gradient"
       id="linearGradient497"
       gradientUnits="userSpaceOnUse"
       gradientTransform="matrix(1,0,0,2,0,80)"
       x1="135"
       y1="-80"
       x2="135"
       y2="-55" />
    <linearGradient
       inkscape:collect="always"
       xlink:href="#shadow_gradient"
       id="linearGradient499"
       gradientUnits="userSpaceOnUse"
       gradientTransform="matrix(1,0,0,2,0,370)"
       x1="125"
       y1="-370"
       x2="125"
       y2="-395" />
    <linearGradient
       inkscape:collect="always"
       xlink:href="#shadow_gradient"
       id="linearGradient503"
       gradientUnits="userSpaceOnUse"
       gradientTransform="matrix(0.36551724,0,0,2,142.75862,-240)"
       x1="215"
       y1="240"
       x2="215"
       y2="265" />
    <linearGradient
       inkscape:collect="always"
       xlink:href="#shadow_gradient"
       id="linearGradient505"
       gradientUnits="userSpaceOnUse"
       gradientTransform="matrix(0.31724138,0,0,2,54.620689,-240)"
       x1="215"
       y1="240"
       x2="215"
       y2="265" />
    <radialGradient
       inkscape:collect="always"
       xlink:href="#shadow_gradient"
       id="radialGradient507"
       gradientUnits="userSpaceOnUse"
       gradientTransform="matrix(-4,0,0,-4,400,1200)"
       cx="80"
       cy="240"
       fx="80"
       fy="240"
       r="12.5" />
    <linearGradient
       inkscape:collect="always"
       xlink:href="#shadow_gradient"
       id="linearGradient509"
       gradientUnits="userSpaceOnUse"
       gradientTransform="matrix(0.31724138,0,0,2,252.62069,-240)"
       x1="215"
       y1="240"
       x2="215"
       y2="265" />
    <radialGradient
       inkscape:collect="always"
       xlink:href="#shadow_gradient"
       id="radialGradient511"
       gradientUnits="userSpaceOnUse"
       gradientTransform="matrix(0,4,-4,0,1330,-1240)"
       cx="370"
       cy="240"
       fx="370"
       fy="240"
       r="12.5" />
    <linearGradient
       inkscape:collect="always"
       xlink:href="#shadow_gradient"
       id="linearGradient515"
       gradientUnits="userSpaceOnUse"
       gradientTransform="matrix(0.36551723,0,0,2,142.75862,-55)"
       x1="255"
       y1="55"
       x2="255"
       y2="30" />
    <linearGradient
       inkscape:collect="always"
       xlink:href="#shadow_gradient"
       id="linearGradient517"
       gradientUnits="userSpaceOnUse"
       gradientTransform="matrix(0.31724137,0,0,2,54.620689,-55)"
       x1="255"
       y1="55"
       x2="255"
       y2="30" />
    <radialGradient
       inkscape:collect="always"
       xlink:href="#shadow_gradient"
       id="radialGradient519"
       gradientUnits="userSpaceOnUse"
       gradientTransform="matrix(0,-4,4,0,-140,375)"
       cx="80"
       cy="55"
       fx="80"
       fy="55"
       r="12.5" />
    <radialGradient
       inkscape:collect="always"
       xlink:href="#shadow_gradient"
       id="radialGradient521"
       gradientUnits="userSpaceOnUse"
       gradientTransform="matrix(4,0,0,4,-1110,-165)"
       cx="370"
       cy="55"
       fx="370"
       fy="55"
       r="12.5" />
    <linearGradient
       inkscape:collect="always"
       xlink:href="#shadow_gradient"
       id="linearGradient523"
       gradientUnits="userSpaceOnUse"
       gradientTransform="matrix(0.31724137,0,0,2,252.62069,-55)"
       x1="255"
       y1="55"
       x2="255"
       y2="30" />
  </defs>
  <g
     inkscape:label="Layer 1"
     inkscape:groupmode="layer"
     id="layer1">
    <g
       id="decoration-center"
       inkscape:label="decoration-center">
      <rect
         style="fill:#000000;fill-opacity:0.40000001;stroke-width:1.08526"
         id="rect14180"
         width="105.99999"
         height="185"
         x="172"
         y="55" />
      <rect
         style="display:inline;fill:#27292b;fill-opacity:0.59210527;stroke-width:3.234"
         id="rect4711"
         width="106"
         height="185"
         x="172"
         y="55" />
    </g>
    <g
       id="decoration-topright"
       inkscape:label="decoration-topright">
      <rect
         style="fill:url(#radialGradient7736);fill-opacity:1;stroke-width:2"
         id="rect7491"
         width="50"
         height="50"
         x="370"
         y="5" />
      <rect
         style="fill:url(#linearGradient14104);fill-opacity:1;stroke-width:0.796542"
         id="rect14102"
         width="92"
         height="50"
         x="278"
         y="5" />
      <rect
         style="display:inline;fill:url(#linearGradient3008);fill-opacity:1;stroke-width:1.34977"
         id="rect1229"
         width="122"
         height="28"
         x="278"
         y="27" />
      <path
         id="rect5451"
         style="fill:#ffffff;fill-opacity:0.253289"
         d="m 278,27 v 1 h 121 v 27 h 1 V 27 h -1 z"
         sodipodi:nodetypes="cccccccc" />
      <path
         id="rect6295"
         style="fill:url(#linearGradient7103);fill-opacity:0.75"
         d="m 280,30 v 3 h 3 v -3 z m 6,0 v 3 h 3 v -3 z m 12,0 v 3 h 3 v -3 z m 6,0 v 3 h 3 v -3 z m -24,6 v 3 h 3 v -3 z m 6,0 v 3 h 3 v -3 z m 6,0 v 3 h 3 v -3 z m 12,0 v 3 h 3 v -3 z m -18,6 v 3 h 3 v -3 z m 6,0 v 3 h 3 v -3 z m 6,0 v 3 h 3 v -3 z m -12,6 v 3 h 3 v -3 z m 6,0 v 3 h 3 v -3 z m 12,0 v 3 h 3 v -3 z" />
      <path
         id="rect6303"
         style="fill:url(#linearGradient7111);fill-opacity:0.75"
         d="m 279,29 v 1 3 1 h 5 v -1 -3 -1 z m 6,0 v 1 3 1 h 5 v -1 -3 -1 z m 12,0 v 1 3 1 h 5 v -1 -3 -1 z m 6,0 v 1 3 1 h 5 v -1 -3 -1 z m -23,1 h 3 v 3 h -3 z m 6,0 h 3 v 3 h -3 z m 12,0 h 3 v 3 h -3 z m 6,0 h 3 v 3 h -3 z m -25,5 v 1 3 1 h 5 v -1 -3 -1 z m 6,0 v 1 3 1 h 5 v -1 -3 -1 z m 6,0 v 1 3 1 h 5 v -1 -3 -1 z m 12,0 v 1 3 1 h 5 v -1 -3 -1 z m -23,1 h 3 v 3 h -3 z m 6,0 h 3 v 3 h -3 z m 6,0 h 3 v 3 h -3 z m 12,0 h 3 v 3 h -3 z m -19,5 v 1 3 1 h 5 v -1 -3 -1 z m 6,0 v 1 3 1 h 5 v -1 -3 -1 z m 6,0 v 1 3 1 h 5 v -1 -3 -1 z m -11,1 h 3 v 3 h -3 z m 6,0 h 3 v 3 h -3 z m 6,0 h 3 v 3 h -3 z m -13,5 v 1 3 1 h 5 v -1 -3 -1 z m 6,0 v 1 3 1 h 5 v -1 -3 -1 z m 12,0 v 1 3 1 h 5 v -1 -3 -1 z m -17,1 h 3 v 3 h -3 z m 6,0 h 3 v 3 h -3 z m 12,0 h 3 v 3 h -3 z"
         inkscape:label="rect6303" />
    </g>
    <g
       id="decoration-topleft"
       inkscape:label="decoration-topleft">
      <rect
         style="fill:url(#linearGradient14109);fill-opacity:1;stroke-width:0.796542"
         id="rect14107"
         width="92"
         height="50"
         x="80"
         y="5" />
      <rect
         style="display:inline;fill:url(#radialGradient7754);fill-opacity:1;stroke-width:2"
         id="rect7495"
         width="50"
         height="50"
         x="30"
         y="5" />
      <rect
         style="display:inline;fill:#27292b;fill-opacity:0.59210527;stroke-width:1.34977"
         id="rect2998"
         width="122"
         height="28"
         x="50"
         y="27" />
      <path
         id="rect8940"
         style="display:inline;fill:#ffffff;fill-opacity:0.253289"
         d="m -50,27 v 28 h -1 V 28 h -121 v -1 h 121 z"
         transform="scale(-1,1)"
         sodipodi:nodetypes="cccccccc" />
    </g>
    <g
       id="decoration-top"
       inkscape:label="decoration-top">
      <rect
         style="fill:url(#linearGradient7580);fill-opacity:1;stroke-width:0.855003"
         id="rect7436"
         width="106"
         height="50"
         x="172"
         y="5" />
      <rect
         style="fill:#27292b;fill-opacity:0.59210527;stroke-width:1.25815"
         id="rect3000"
         width="106"
         height="28"
         x="172"
         y="27" />
      <rect
         style="fill:#ffffff;fill-opacity:0.253289;stroke-width:1.9814"
         id="rect8948"
         width="1"
         height="106"
         x="27"
         y="172"
         transform="matrix(0,1,1,0,0,0)" />
    </g>
    <g
       id="decoration-bottomright"
       inkscape:label="decoration-bottomright">
      <rect
         style="fill:url(#linearGradient14119);fill-opacity:1;stroke-width:0.796542"
         id="rect14117"
         width="92"
         height="50"
         x="278"
         y="240" />
      <rect
         style="fill:url(#radialGradient7746);fill-opacity:1;stroke-width:2"
         id="rect7493"
         width="50"
         height="50"
         x="370"
         y="240" />
      <rect
         style="fill:url(#linearGradient4719);fill-opacity:1;stroke-width:0.919715"
         id="rect4713"
         width="122"
         height="13"
         x="278"
         y="240" />
      <path
         id="rect12583"
         style="fill:#ffffff;fill-opacity:0.253289;stroke-width:2.11696"
         d="m 240,-399 h 12 v 121 h 1 v -121 -1 h -13 z"
         transform="rotate(90)" />
    </g>
    <g
       id="decoration-bottomleft"
       inkscape:label="decoration-bottomleft">
      <rect
         style="fill:url(#linearGradient14115);fill-opacity:1;stroke-width:0.796542"
         id="rect14112"
         width="92"
         height="50"
         x="80"
         y="240" />
      <rect
         style="display:inline;fill:url(#radialGradient7762);fill-opacity:1;stroke-width:2"
         id="rect7497"
         width="50"
         height="50"
         x="30"
         y="240" />
      <rect
         style="fill:#27292b;fill-opacity:0.59210527;stroke-width:0.919715"
         id="rect4715"
         width="122"
         height="13"
         x="50"
         y="240" />
      <path
         id="rect12585"
         style="display:inline;fill:#ffffff;fill-opacity:0.253289;stroke-width:2.11696"
         d="m 240,50 h 13 v 1 121 h -1 V 51 h -12 z"
         transform="matrix(0,1,1,0,0,0)" />
    </g>
    <g
       id="decoration-bottom"
       inkscape:label="decoration-bottom">
      <rect
         style="fill:url(#linearGradient7728);fill-opacity:1;stroke-width:0.855003"
         id="rect7485"
         width="106"
         height="50"
         x="172"
         y="240" />
      <rect
         style="fill:#27292b;fill-opacity:0.59210527;stroke-width:0.857286"
         id="rect4717"
         width="106"
         height="13"
         x="172"
         y="240" />
      <rect
         style="fill:#ffffff;fill-opacity:0.253289;stroke-width:1.9814"
         id="rect12587"
         width="1"
         height="106"
         x="252"
         y="172"
         transform="matrix(0,1,1,0,0,0)" />
    </g>
    <g
       id="decoration-right"
       inkscape:label="decoration-right">
      <rect
         style="fill:url(#linearGradient7712);fill-opacity:1;stroke-width:1.12954"
         id="rect7487"
         width="185"
         height="50"
         x="55"
         y="-420"
         transform="rotate(90)" />
      <rect
         style="fill:#000000;fill-opacity:0.40000001;stroke-width:1.01105"
         id="rect14177"
         width="92"
         height="185"
         x="278"
         y="55" />
      <rect
         style="display:inline;fill:url(#linearGradient3981);fill-opacity:1;stroke-width:3.4695"
         id="rect3979"
         width="122"
         height="185"
         x="278"
         y="55" />
      <rect
         style="fill:#ffffff;fill-opacity:0.253289;stroke-width:2.6176"
         id="rect14045"
         width="1"
         height="185"
         x="399"
         y="55" />
    </g>
    <g
       id="decoration-left"
       inkscape:label="decoration-left">
      <rect
         style="fill:#000000;fill-opacity:0.40000001;stroke-width:1.01105"
         id="rect14174"
         width="92"
         height="185"
         x="80"
         y="55" />
      <rect
         style="fill:url(#linearGradient7720);fill-opacity:1;stroke-width:1.12954"
         id="rect7489"
         width="185"
         height="50"
         x="55"
         y="-80"
         transform="rotate(90)" />
      <rect
         style="display:inline;fill:#27292b;fill-opacity:0.59210527;stroke-width:3.4695"
         id="rect3983"
         width="122"
         height="185"
         x="50"
         y="55" />
      <rect
         style="fill:#ffffff;fill-opacity:0.253289;stroke-width:2.6176"
         id="rect14047"
         width="1"
         height="185"
         x="-51"
         y="55"
         transform="scale(-1,1)" />
    </g>
    <g
       id="mask-center"
       inkscape:label="mask-center"
       transform="translate(453,4)">
      <rect
         style="fill:none;fill-opacity:0.4;stroke-width:1.08526"
         id="rect15621"
         width="105.99999"
         height="185"
         x="172"
         y="55" />
      <rect
         style="display:inline;fill:#000000;fill-opacity:1;stroke-width:3.234"
         id="rect15623"
         width="106"
         height="185"
         x="172"
         y="55" />
    </g>
    <g
       id="mask-topright"
       inkscape:label="mask-topright"
       transform="translate(453,4)">
      <rect
         style="fill:none;fill-opacity:1;stroke-width:2"
         id="rect15627"
         width="50"
         height="50"
         x="370"
         y="5" />
      <rect
         style="fill:none;fill-opacity:1;stroke-width:0.796542"
         id="rect15629"
         width="92"
         height="50"
         x="278"
         y="5" />
      <rect
         style="display:inline;fill:#000000;fill-opacity:1;stroke-width:1.37928"
         id="rect15631"
         width="123"
         height="29"
         x="278"
         y="26" />
    </g>
    <g
       id="mask-topleft"
       inkscape:label="mask-topleft"
       transform="translate(453,4)">
      <rect
         style="fill:none;fill-opacity:1;stroke-width:0.796542"
         id="rect15641"
         width="92"
         height="50"
         x="80"
         y="5" />
      <rect
         style="display:inline;fill:none;fill-opacity:1;stroke-width:2"
         id="rect15643"
         width="50"
         height="50"
         x="30"
         y="5" />
      <rect
         style="display:inline;fill:#000000;fill-opacity:1;stroke-width:1.37927"
         id="rect15645"
         width="123"
         height="29"
         x="49"
         y="26" />
    </g>
    <g
       id="mask-top"
       inkscape:label="mask-top"
       transform="translate(453,4)">
      <rect
         style="fill:none;fill-opacity:1;stroke-width:0.855003"
         id="rect15651"
         width="106"
         height="50"
         x="172"
         y="5" />
      <rect
         style="fill:#000000;fill-opacity:1;stroke-width:1.28042"
         id="rect15653"
         width="106"
         height="29"
         x="172"
         y="26" />
    </g>
    <g
       id="mask-bottomright"
       inkscape:label="mask-bottomright"
       transform="translate(453,4)">
      <rect
         style="fill:none;fill-opacity:1;stroke-width:0.796542"
         id="rect15659"
         width="92"
         height="50"
         x="278"
         y="240" />
      <rect
         style="fill:none;fill-opacity:1;stroke-width:2"
         id="rect15661"
         width="50"
         height="50"
         x="370"
         y="240" />
      <rect
         style="fill:#000000;fill-opacity:1;stroke-width:0.923477"
         id="rect15663"
         width="123"
         height="14"
         x="278"
         y="240" />
    </g>
    <g
       id="mask-bottomleft"
       inkscape:label="mask-bottomleft"
       transform="translate(453,4)">
      <rect
         style="fill:none;fill-opacity:1;stroke-width:0.796542"
         id="rect15669"
         width="92"
         height="50"
         x="80"
         y="240" />
      <rect
         style="display:inline;fill:none;fill-opacity:1;stroke-width:2"
         id="rect15671"
         width="50"
         height="50"
         x="30"
         y="240" />
      <rect
         style="fill:#000000;fill-opacity:1;stroke-width:0.923477"
         id="rect15673"
         width="123"
         height="14"
         x="49"
         y="240" />
    </g>
    <g
       id="mask-bottom"
       inkscape:label="mask-bottom"
       transform="translate(453,4)">
      <rect
         style="fill:none;fill-opacity:1;stroke-width:0.855003"
         id="rect15679"
         width="106"
         height="50"
         x="172"
         y="240" />
      <rect
         style="fill:#000000;fill-opacity:0.996711;stroke-width:0.857286"
         id="rect15681"
         width="106"
         height="14"
         x="172"
         y="240" />
    </g>
    <g
       id="mask-right"
       inkscape:label="mask-right"
       transform="translate(453,4)">
      <rect
         style="fill:none;fill-opacity:1;stroke-width:1.12954"
         id="rect15687"
         width="185"
         height="50"
         x="55"
         y="-420"
         transform="rotate(90)" />
      <rect
         style="fill:none;fill-opacity:0.4;stroke-width:1.01105"
         id="rect15689"
         width="92"
         height="185"
         x="278"
         y="55" />
      <rect
         style="display:inline;fill:#000000;fill-opacity:1;stroke-width:3.48369"
         id="rect15691"
         width="123"
         height="185"
         x="278"
         y="55" />
    </g>
    <g
       id="mask-left"
       inkscape:label="mask-left"
       transform="translate(453,4)">
      <rect
         style="fill:none;fill-opacity:0.4;stroke-width:1.01105"
         id="rect15697"
         width="92"
         height="185"
         x="80"
         y="55" />
      <rect
         style="fill:none;fill-opacity:1;stroke-width:1.12954"
         id="rect15699"
         width="185"
         height="50"
         x="55"
         y="-80"
         transform="rotate(90)" />
      <rect
         style="display:inline;fill:#000000;fill-opacity:1;stroke-width:3.4695"
         id="rect15701"
         width="123"
         height="185"
         x="49"
         y="55" />
    </g>
    <rect
       style="fill:#ffffff;fill-opacity:0"
       id="innerborder-center"
       width="30"
       height="25"
       x="421"
       y="340" />
    <rect
       style="fill:#ffffff;fill-opacity:0.30000001"
       id="innerborder-top"
       width="30"
       height="1"
       x="421"
       y="339" />
    <rect
       style="fill:#ffffff;fill-opacity:0.30000001;stroke-width:1.11803"
       id="innerborder-right"
       width="1"
       height="25"
       x="451"
       y="340" />
    <rect
       style="fill:#ffffff;fill-opacity:0.30000001;stroke-width:1.11803"
       id="innerborder-left"
       width="1"
       height="25"
       x="420"
       y="340" />
    <rect
       style="fill:#ffffff;fill-opacity:0.30000001"
       id="innerborder-bottom"
       width="30"
       height="1"
       x="421"
       y="365" />
    <rect
       style="fill:#ffffff;fill-opacity:0.30000001"
       id="innerborder-topright"
       width="1"
       height="1"
       x="451"
       y="339" />
    <rect
       style="fill:#ffffff;fill-opacity:0.30000001"
       id="innerborder-topleft"
       width="1"
       height="1"
       x="420"
       y="339" />
    <rect
       style="fill:#ffffff;fill-opacity:0.30000001"
       id="innerborder-bottomleft"
       width="1"
       height="1"
       x="420"
       y="365" />
    <rect
       style="fill:#ffffff;fill-opacity:0.30000001"
       id="innerborder-bottomright"
       width="1"
       height="1"
       x="451"
       y="365" />
    <rect
       style="fill:#27292b;fill-opacity:0"
       id="innerborder-inactive-center"
       width="30"
       height="25"
       x="469"
       y="340" />
    <rect
       style="fill:#afafaf;fill-opacity:0.30000001"
       id="innerborder-inactive-top"
       width="30"
       height="1"
       x="469"
       y="339" />
    <rect
       style="fill:#afafaf;fill-opacity:0.30000001;stroke-width:1.11803"
       id="innerborder-inactive-right"
       width="1"
       height="25"
       x="499"
       y="340" />
    <rect
       style="fill:#afafaf;fill-opacity:0.30000001;stroke-width:1.11803"
       id="innerborder-inactive-left"
       width="1"
       height="25"
       x="468"
       y="340" />
    <rect
       style="fill:#afafaf;fill-opacity:0.30000001"
       id="innerborder-inactive-bottom"
       width="30"
       height="1"
       x="469"
       y="365" />
    <rect
       style="fill:#afafaf;fill-opacity:0.30000001"
       id="innerborder-inactive-topright"
       width="1"
       height="1"
       x="499"
       y="339" />
    <rect
       style="fill:#afafaf;fill-opacity:0.30000001"
       id="innerborder-inactive-topleft"
       width="1"
       height="1"
       x="468"
       y="339" />
    <rect
       style="fill:#afafaf;fill-opacity:0.30000001"
       id="innerborder-inactive-bottomleft"
       width="1"
       height="1"
       x="468"
       y="365" />
    <rect
       style="fill:#afafaf;fill-opacity:0.30000001"
       id="innerborder-inactive-bottomright"
       width="1"
       height="1"
       x="499"
       y="365" />
    <g
       id="decoration-inactive-center"
       inkscape:label="decoration-inactive-center"
       transform="translate(8,-308)">
      <rect
         style="fill:#000000;fill-opacity:0.4;stroke-width:1.08526"
         id="rect357"
         width="105.99999"
         height="185"
         x="172"
         y="55" />
      <rect
         style="display:inline;fill:#000000;fill-opacity:0.59210497;stroke-width:3.234"
         id="rect359"
         width="106"
         height="185"
         x="172"
         y="55" />
    </g>
    <g
       id="decoration-inactive-topright"
       inkscape:label="decoration-inactive-topright"
       transform="translate(8,-308)">
      <rect
         style="fill:url(#radialGradient521);fill-opacity:1;stroke-width:2"
         id="rect363"
         width="50"
         height="50"
         x="370"
         y="5" />
      <rect
         style="fill:url(#linearGradient523);fill-opacity:1;stroke-width:0.796542"
         id="rect365"
         width="92"
         height="50"
         x="278"
         y="5" />
      <rect
         style="display:inline;fill:#000000;fill-opacity:0.58999997;stroke-width:1.34977"
         id="rect367"
         width="122"
         height="28"
         x="278"
         y="27" />
      <path
         id="path369"
         style="fill:#ffffff;fill-opacity:0.253289"
         d="m 278,27 v 1 h 121 v 27 h 1 V 27 h -1 z"
         sodipodi:nodetypes="cccccccc" />
    </g>
    <g
       id="decoration-inactive-topleft"
       inkscape:label="decoration-inactive-topleft"
       transform="translate(8,-308)">
      <rect
         style="fill:url(#linearGradient517);fill-opacity:1;stroke-width:0.796542"
         id="rect377"
         width="92"
         height="50"
         x="80"
         y="5" />
      <rect
         style="display:inline;fill:url(#radialGradient519);fill-opacity:1;stroke-width:2"
         id="rect379"
         width="50"
         height="50"
         x="30"
         y="5" />
      <rect
         style="display:inline;fill:#000000;fill-opacity:0.59210497;stroke-width:1.34977"
         id="rect381"
         width="122"
         height="28"
         x="50"
         y="27" />
      <path
         id="path383"
         style="display:inline;fill:#ffffff;fill-opacity:0.253289"
         d="m -50,27 v 28 h -1 V 28 h -121 v -1 h 121 z"
         transform="scale(-1,1)"
         sodipodi:nodetypes="cccccccc" />
    </g>
    <g
       id="decoration-inactive-top"
       inkscape:label="decoration-inactive-top"
       transform="translate(8,-308)">
      <rect
         style="fill:url(#linearGradient515);fill-opacity:1;stroke-width:0.855003"
         id="rect387"
         width="106"
         height="50"
         x="172"
         y="5" />
      <rect
         style="fill:#000000;fill-opacity:0.59210497;stroke-width:1.25815"
         id="rect389"
         width="106"
         height="28"
         x="172"
         y="27" />
      <rect
         style="fill:#ffffff;fill-opacity:0.253289;stroke-width:1.9814"
         id="rect391"
         width="1"
         height="106"
         x="27"
         y="172"
         transform="matrix(0,1,1,0,0,0)" />
    </g>
    <g
       id="decoration-inactive-bottomright"
       inkscape:label="decoration-inactive-bottomright"
       transform="translate(8,-308)">
      <rect
         style="fill:url(#linearGradient509);fill-opacity:1;stroke-width:0.796542"
         id="rect395"
         width="92"
         height="50"
         x="278"
         y="240" />
      <rect
         style="fill:url(#radialGradient511);fill-opacity:1;stroke-width:2"
         id="rect397"
         width="50"
         height="50"
         x="370"
         y="240" />
      <rect
         style="fill:#000000;fill-opacity:0.59210497;stroke-width:0.919715"
         id="rect399"
         width="122"
         height="13"
         x="278"
         y="240" />
      <path
         id="path401"
         style="fill:#ffffff;fill-opacity:0.253289;stroke-width:2.11696"
         d="m 240,-399 h 12 v 121 h 1 v -121 -1 h -13 z"
         transform="rotate(90)" />
    </g>
    <g
       id="decoration-inactive-bottomleft"
       inkscape:label="decoration-inactive-bottomleft"
       transform="translate(8,-308)">
      <rect
         style="fill:url(#linearGradient505);fill-opacity:1;stroke-width:0.796542"
         id="rect405"
         width="92"
         height="50"
         x="80"
         y="240" />
      <rect
         style="display:inline;fill:url(#radialGradient507);fill-opacity:1;stroke-width:2"
         id="rect407"
         width="50"
         height="50"
         x="30"
         y="240" />
      <rect
         style="fill:#000000;fill-opacity:0.59210497;stroke-width:0.919715"
         id="rect409"
         width="122"
         height="13"
         x="50"
         y="240" />
      <path
         id="path411"
         style="display:inline;fill:#ffffff;fill-opacity:0.253289;stroke-width:2.11696"
         d="m 240,50 h 13 v 1 121 h -1 V 51 h -12 z"
         transform="matrix(0,1,1,0,0,0)" />
    </g>
    <g
       id="decoration-inactive-bottom"
       inkscape:label="decoration-inactive-bottom"
       transform="translate(8,-308)">
      <rect
         style="fill:url(#linearGradient503);fill-opacity:1;stroke-width:0.855003"
         id="rect415"
         width="106"
         height="50"
         x="172"
         y="240" />
      <rect
         style="fill:#000000;fill-opacity:0.59210497;stroke-width:0.857286"
         id="rect417"
         width="106"
         height="13"
         x="172"
         y="240" />
      <rect
         style="fill:#ffffff;fill-opacity:0.253289;stroke-width:1.9814"
         id="rect419"
         width="1"
         height="106"
         x="252"
         y="172"
         transform="matrix(0,1,1,0,0,0)" />
    </g>
    <g
       id="decoration-inactive-right"
       inkscape:label="decoration-inactive-right"
       transform="translate(8,-308)">
      <rect
         style="fill:url(#linearGradient499);fill-opacity:1;stroke-width:1.12954"
         id="rect423"
         width="185"
         height="50"
         x="55"
         y="-420"
         transform="rotate(90)" />
      <rect
         style="fill:#000000;fill-opacity:0.4;stroke-width:1.01105"
         id="rect425"
         width="92"
         height="185"
         x="278"
         y="55" />
      <rect
         style="display:inline;fill:#000000;fill-opacity:0.59210497;stroke-width:3.4695"
         id="rect427"
         width="122"
         height="185"
         x="278"
         y="55" />
      <rect
         style="fill:#ffffff;fill-opacity:0.253289;stroke-width:2.6176"
         id="rect429"
         width="1"
         height="185"
         x="399"
         y="55" />
    </g>
    <g
       id="decoration-inactive-left"
       inkscape:label="decoration-inactive-left"
       transform="translate(8,-308)">
      <rect
         style="fill:#000000;fill-opacity:0.4;stroke-width:1.01105"
         id="rect433"
         width="92"
         height="185"
         x="80"
         y="55" />
      <rect
         style="fill:url(#linearGradient497);fill-opacity:1;stroke-width:1.12954"
         id="rect435"
         width="185"
         height="50"
         x="55"
         y="-80"
         transform="rotate(90)" />
      <rect
         style="display:inline;fill:#000000;fill-opacity:0.59210497;stroke-width:3.4695"
         id="rect437"
         width="122"
         height="185"
         x="50"
         y="55" />
      <rect
         style="fill:#ffffff;fill-opacity:0.253289;stroke-width:2.6176"
         id="rect439"
         width="1"
         height="185"
         x="-51"
         y="55"
         transform="scale(-1,1)" />
    </g>
  </g>
</svg>
