<?xml version="1.0" encoding="UTF-8" standalone="no"?>
<svg
   id="svg4306"
   width="22"
   height="22"
   version="1.1"
   style="enable-background:new"
   sodipodi:docname="minimize.svg"
   inkscape:version="1.3.2 (091e20ef0f, 2023-11-25)"
   xmlns:inkscape="http://www.inkscape.org/namespaces/inkscape"
   xmlns:sodipodi="http://sodipodi.sourceforge.net/DTD/sodipodi-0.dtd"
   xmlns="http://www.w3.org/2000/svg"
   xmlns:svg="http://www.w3.org/2000/svg"
   xmlns:rdf="http://www.w3.org/1999/02/22-rdf-syntax-ns#"
   xmlns:cc="http://creativecommons.org/ns#"
   xmlns:dc="http://purl.org/dc/elements/1.1/">
  <metadata
     id="metadata28">
    <rdf:RDF>
      <cc:Work
         rdf:about="">
        <dc:format>image/svg+xml</dc:format>
        <dc:type
           rdf:resource="http://purl.org/dc/dcmitype/StillImage" />
      </cc:Work>
    </rdf:RDF>
  </metadata>
  <defs
     id="defs26" />
  <sodipodi:namedview
     inkscape:document-rotation="0"
     pagecolor="#9f9f9f"
     bordercolor="#000000"
     borderopacity="1"
     objecttolerance="10"
     gridtolerance="10"
     guidetolerance="10"
     inkscape:pageopacity="0"
     inkscape:pageshadow="2"
     inkscape:window-width="1920"
     inkscape:window-height="1021"
     id="namedview24"
     showgrid="false"
     inkscape:zoom="11.313709"
     inkscape:cx="-31.46625"
     inkscape:cy="23.20194"
     inkscape:window-x="0"
     inkscape:window-y="0"
     inkscape:window-maximized="1"
     inkscape:current-layer="hover-center"
     inkscape:snap-bbox="true"
     inkscape:bbox-nodes="true"
     inkscape:lockguides="false"
     inkscape:pagecheckerboard="0"
     inkscape:showpageshadow="2"
     inkscape:deskcolor="#cccccc">
    <inkscape:grid
       type="xygrid"
       id="grid853"
       originx="-44"
       originy="0"
       spacingy="1"
       spacingx="1"
       units="px"
       visible="false" />
  </sodipodi:namedview>
  <style
     type="text/css"
     id="current-color-scheme" />
  <g
     id="active-center"
     transform="translate(-42.874992,-1.284349)"
     style="enable-background:new">
    <path
       id="rect4995-7"
       style="fill:#ffffff;fill-opacity:0.66666669;enable-background:new"
       d="M -41.125008 2.1241927 L -41.125008 3.1241927 L -41.125008 18.124193 L -41.125008 19.124193 L -24.125008 19.124193 L -24.125008 18.124193 L -24.125008 3.1241927 L -24.125008 2.1241927 L -41.125008 2.1241927 z M -40.125008 3.1241927 L -25.125008 3.1241927 L -25.125008 18.124193 L -40.125008 18.124193 L -40.125008 3.1241927 z "
       transform="translate(44)" />
    <rect
       style="fill:#ffffff;fill-opacity:0.66666669;stroke-width:0.94281"
       id="rect24295"
       width="2"
       height="8"
       x="-15.197105"
       y="6.8749924"
       transform="rotate(-90)" />
  </g>
  <g
     id="inactive-center"
     transform="translate(-44,22.840653)"
     style="enable-background:new">
    <path
       id="rect4995-7-4"
       style="fill:#ffffff;fill-opacity:0.40000001;enable-background:new"
       d="M 2.1914062 2.8097376 L 2.1914062 3.8097376 L 2.1914062 18.809738 L 2.1914062 19.809738 L 19.191406 19.809738 L 19.191406 18.809738 L 19.191406 3.8097376 L 19.191406 2.8097376 L 2.1914062 2.8097376 z M 3.1914062 3.8097376 L 18.191406 3.8097376 L 18.191406 18.809738 L 3.1914062 18.809738 L 3.1914062 3.8097376 z " />
    <rect
       style="fill:#ffffff;fill-opacity:0.4;stroke-width:0.94281;enable-background:new"
       id="rect24295-1"
       width="2"
       height="8"
       x="-15.880993"
       y="6.1911101"
       transform="rotate(-90)" />
  </g>
  <g
     id="hover-center"
     transform="translate(0,22.840653)"
     style="enable-background:new">
    <rect
       style="fill:#ffffff;fill-opacity:0.18;enable-background:new"
       id="rect20508"
       width="15"
       height="15"
       x="-19.078873"
       y="-21.014719" />
    <path
       id="rect4995-7-3"
       style="fill:#ffffff;fill-opacity:0.80000001;enable-background:new"
       d="M -20.078125 -22.014481 L -20.078125 -21.014481 L -20.078125 -6.0144811 L -20.078125 -5.0144811 L -3.078125 -5.0144811 L -3.078125 -6.0144811 L -3.078125 -21.014481 L -3.078125 -22.014481 L -20.078125 -22.014481 z M -19.078125 -21.014481 L -4.078125 -21.014481 L -4.078125 -6.0144811 L -19.078125 -6.0144811 L -19.078125 -21.014481 z " />
    <rect
       style="fill:#ffffff;fill-opacity:0.80000001;stroke-width:0.94281;enable-background:new"
       id="rect24295-9"
       width="2"
       height="8"
       x="9"
       y="-16"
       transform="rotate(-90)" />
  </g>
  <g
     id="pressed-center"
     transform="translate(0,22.840653)"
     style="enable-background:new">
    <rect
       style="fill:#b0b0b0;fill-opacity:0.18;enable-background:new"
       id="rect20508-7"
       width="15"
       height="15"
       x="4"
       y="-19" />
    <path
       id="rect4995-7-3-3"
       style="fill:#cccccc;fill-opacity:0.61;enable-background:new"
       d="M 3 -20.000809 L 3 -19.000809 L 3 -4.0008092 L 3 -3.0008092 L 20 -3.0008092 L 20 -4.0008092 L 20 -19.000809 L 20 -20.000809 L 3 -20.000809 z M 4 -19.000809 L 19 -19.000809 L 19 -4.0008092 L 4 -4.0008092 L 4 -19.000809 z " />
    <rect
       style="fill:#ffffff;fill-opacity:0.58;stroke-width:0.94281;enable-background:new"
       id="rect24295-9-9"
       width="2"
       height="8"
       x="6.9852819"
       y="7.0788727"
       transform="rotate(-90)" />
  </g>
  <g
     id="pressed-inactive-center"
     transform="translate(0,22.840653)"
     style="enable-background:new">
    <rect
       style="fill:#b0b0b0;fill-opacity:0.18;enable-background:new"
       id="rect20508-7-5"
       width="15"
       height="15"
       x="4.0299993"
       y="26.083412"
       transform="translate(0,-22)" />
    <path
       id="rect4995-7-3-3-2"
       style="fill:#cccccc;fill-opacity:0.61;enable-background:new"
       inkscape:label="rect4995-7-3-3-2"
       d="M 3.0292969 25.083175 L 3.0292969 26.083175 L 3.0292969 41.083175 L 3.0292969 42.083175 L 20.029297 42.083175 L 20.029297 41.083175 L 20.029297 26.083175 L 20.029297 25.083175 L 3.0292969 25.083175 z M 4.0292969 26.083175 L 19.029297 26.083175 L 19.029297 41.083175 L 4.0292969 41.083175 L 4.0292969 26.083175 z "
       transform="translate(0,-22)" />
    <rect
       style="fill:#ffffff;fill-opacity:0.58;stroke-width:0.94281;enable-background:new"
       id="rect24295-9-9-0"
       width="2"
       height="8"
       x="-16.098129"
       y="7.1088734"
       transform="rotate(-90)" />
  </g>
  <g
     id="hover-inactive-center"
     transform="translate(-22,22.840653)"
     style="enable-background:new">
    <rect
       style="fill:#ffffff;fill-opacity:0.15;enable-background:new"
       id="rect20508-0"
       width="15"
       height="15"
       x="2.7869844"
       y="3.6716266" />
    <path
       id="rect4995-7-3-6"
       style="fill:#ffffff;fill-opacity:0.66666669;enable-background:new"
       d="M 1.7871094 2.6710658 L 1.7871094 3.6710658 L 1.7871094 18.671066 L 1.7871094 19.671066 L 18.787109 19.671066 L 18.787109 18.671066 L 18.787109 3.6710658 L 18.787109 2.6710658 L 1.7871094 2.6710658 z M 2.7871094 3.6710658 L 17.787109 3.6710658 L 17.787109 18.671066 L 2.7871094 18.671066 L 2.7871094 3.6710658 z " />
    <rect
       style="fill:#ffffff;fill-opacity:0.80000001;stroke-width:0.94281;enable-background:new"
       id="rect24295-9-5"
       width="2"
       height="8"
       x="-15.686346"
       y="5.8658562"
       transform="rotate(-90)" />
  </g>
</svg>
