<?xml version="1.0" encoding="UTF-8" standalone="no"?>
<svg
   id="svg4306"
   width="22"
   height="22"
   version="1.1"
   style="enable-background:new"
   sodipodi:docname="restore.svg"
   inkscape:version="1.3.2 (091e20ef0f, 2023-11-25)"
   xmlns:inkscape="http://www.inkscape.org/namespaces/inkscape"
   xmlns:sodipodi="http://sodipodi.sourceforge.net/DTD/sodipodi-0.dtd"
   xmlns="http://www.w3.org/2000/svg"
   xmlns:svg="http://www.w3.org/2000/svg"
   xmlns:rdf="http://www.w3.org/1999/02/22-rdf-syntax-ns#"
   xmlns:cc="http://creativecommons.org/ns#"
   xmlns:dc="http://purl.org/dc/elements/1.1/">
  <metadata
     id="metadata28">
    <rdf:RDF>
      <cc:Work
         rdf:about="">
        <dc:format>image/svg+xml</dc:format>
        <dc:type
           rdf:resource="http://purl.org/dc/dcmitype/StillImage" />
      </cc:Work>
    </rdf:RDF>
  </metadata>
  <defs
     id="defs26" />
  <sodipodi:namedview
     inkscape:document-rotation="0"
     pagecolor="#ffffff"
     bordercolor="#000000"
     borderopacity="1"
     objecttolerance="10"
     gridtolerance="10"
     guidetolerance="10"
     inkscape:pageopacity="0"
     inkscape:pageshadow="2"
     inkscape:window-width="1920"
     inkscape:window-height="1021"
     id="namedview24"
     showgrid="true"
     inkscape:zoom="22.627417"
     inkscape:cx="-25.367456"
     inkscape:cy="26.62699"
     inkscape:window-x="0"
     inkscape:window-y="0"
     inkscape:window-maximized="1"
     inkscape:current-layer="inactive-center"
     inkscape:snap-bbox="true"
     inkscape:bbox-nodes="true"
     inkscape:lockguides="false"
     inkscape:pagecheckerboard="0"
     inkscape:showpageshadow="2"
     inkscape:deskcolor="#cccccc">
    <inkscape:grid
       type="xygrid"
       id="grid853"
       originx="-44"
       originy="0"
       spacingy="1"
       spacingx="1"
       units="px"
       visible="true" />
  </sodipodi:namedview>
  <style
     type="text/css"
     id="current-color-scheme" />
  <g
     id="active-center"
     transform="translate(-42.874992,-2.125002)"
     style="enable-background:new">
    <path
       id="rect4995-7"
       style="fill:#ffffff;fill-opacity:0.66666669;enable-background:new"
       d="M -41.125008 2.125002 L -41.125008 3.125002 L -41.125008 18.125002 L -41.125008 19.125002 L -24.125008 19.125002 L -24.125008 18.125002 L -24.125008 3.125002 L -24.125008 2.125002 L -41.125008 2.125002 z M -40.125008 3.125002 L -25.125008 3.125002 L -25.125008 18.125002 L -40.125008 18.125002 L -40.125008 3.125002 z "
       transform="translate(44)" />
    <path
       id="rect24289"
       style="fill:#ffffff;fill-opacity:0.66666669;stroke-width:0.623609"
       d="M 8.874992 6.125002 L 8.874992 9.125002 L 7.874992 9.125002 L 6.874992 9.125002 L 6.874992 15.125002 L 7.874992 15.125002 L 12.874992 15.125002 L 13.874992 15.125002 L 13.874992 13.125002 L 14.874992 13.125002 L 15.874992 13.125002 L 15.874992 6.125002 L 14.874992 6.125002 L 9.874992 6.125002 L 8.874992 6.125002 z M 9.874992 8.125002 L 14.874992 8.125002 L 14.874992 12.125002 L 13.874992 12.125002 L 13.874992 9.125002 L 12.874992 9.125002 L 9.874992 9.125002 L 9.874992 8.125002 z " />
  </g>
  <g
     id="hover-center"
     transform="translate(0.07887268,22.014719)"
     style="enable-background:new">
    <rect
       style="fill:#ffffff;fill-opacity:0.18;enable-background:new"
       id="rect20508"
       width="15"
       height="15"
       x="-19.078873"
       y="-21.014719" />
    <path
       id="rect4995-7-3"
       style="fill:#ffffff;fill-opacity:0.80000001;enable-background:new"
       d="M -20.078873 -22.014719 L -20.078873 -21.014719 L -20.078873 -6.014719 L -20.078873 -5.014719 L -3.0788727 -5.014719 L -3.0788727 -6.014719 L -3.0788727 -21.014719 L -3.0788727 -22.014719 L -20.078873 -22.014719 z M -19.078873 -21.014719 L -4.0788727 -21.014719 L -4.0788727 -6.014719 L -19.078873 -6.014719 L -19.078873 -21.014719 z " />
    <path
       id="path31761"
       style="fill:#ffffff;fill-opacity:0.80000001;stroke-width:0.623609;enable-background:new"
       d="M -14.078873 -18.014719 L -14.078873 -15.014719 L -15.078873 -15.014719 L -16.078873 -15.014719 L -16.078873 -9.014719 L -15.078873 -9.014719 L -10.078873 -9.014719 L -9.078873 -9.014719 L -9.078873 -11.014719 L -8.078873 -11.014719 L -7.078873 -11.014719 L -7.078873 -18.014719 L -8.078873 -18.014719 L -13.078873 -18.014719 L -14.078873 -18.014719 z M -13.078873 -16.014719 L -8.078873 -16.014719 L -8.078873 -12.014719 L -9.078873 -12.014719 L -9.078873 -15.014719 L -10.078873 -15.014719 L -13.078873 -15.014719 L -13.078873 -16.014719 z " />
  </g>
  <g
     id="pressed-center"
     transform="translate(0,22)"
     style="enable-background:new">
    <rect
       style="fill:#b0b0b0;fill-opacity:0.18;enable-background:new"
       id="rect20508-7"
       width="15"
       height="15"
       x="4"
       y="-19" />
    <path
       id="rect4995-7-3-3"
       style="display:inline;fill:#cccccc;fill-opacity:0.61;enable-background:new"
       d="m 3,-20 v 1 15 1 h 17 v -1 -15 -1 z m 1,1 H 19 V -4 H 4 Z" />
    <path
       id="path32128"
       style="fill:#ffffff;fill-opacity:0.58;stroke-width:0.623609;enable-background:new"
       d="M 9 -16 L 9 -13 L 8 -13 L 7 -13 L 7 -7 L 8 -7 L 13 -7 L 14 -7 L 14 -9 L 15 -9 L 16 -9 L 16 -16 L 15 -16 L 10 -16 L 9 -16 z M 10 -14 L 15 -14 L 15 -10 L 14 -10 L 14 -13 L 13 -13 L 10 -13 L 10 -14 z " />
  </g>
  <g
     id="pressed-inactive-center"
     transform="translate(-0.02999902,21.916588)"
     style="enable-background:new">
    <rect
       style="fill:#b0b0b0;fill-opacity:0.18;enable-background:new"
       id="rect20508-7-5"
       width="15"
       height="15"
       x="4.0299993"
       y="26.083412"
       transform="translate(0,-22)" />
    <path
       id="rect4995-7-3-3-2"
       style="fill:#cccccc;fill-opacity:0.61;enable-background:new"
       inkscape:label="rect4995-7-3-3-2"
       d="M 3.029999 25.083412 L 3.029999 26.083412 L 3.029999 41.083412 L 3.029999 42.083412 L 20.029999 42.083412 L 20.029999 41.083412 L 20.029999 26.083412 L 20.029999 25.083412 L 3.029999 25.083412 z M 4.029999 26.083412 L 19.029999 26.083412 L 19.029999 41.083412 L 4.029999 41.083412 L 4.029999 26.083412 z "
       transform="translate(0,-22)" />
    <path
       id="path32550"
       style="display:inline;fill:#ffffff;fill-opacity:0.58;stroke-width:0.623609;enable-background:new"
       d="M 9.029999 7.083412 L 9.029999 10.083412 L 8.029999 10.083412 L 7.029999 10.083412 L 7.029999 16.083412 L 8.029999 16.083412 L 13.029999 16.083412 L 14.029999 16.083412 L 14.029999 14.083412 L 15.029999 14.083412 L 16.029999 14.083412 L 16.029999 7.083412 L 15.029999 7.083412 L 10.029999 7.083412 L 9.029999 7.083412 z M 10.029999 9.083412 L 15.029999 9.083412 L 15.029999 13.083412 L 14.029999 13.083412 L 14.029999 10.083412 L 13.029999 10.083412 L 10.029999 10.083412 L 10.029999 9.083412 z " />
  </g>
  <g
     id="hover-inactive-center"
     transform="translate(-21.786983,22.328373)"
     style="display:inline;enable-background:new">
    <rect
       style="fill:#ffffff;fill-opacity:0.15;enable-background:new"
       id="rect20508-0"
       width="15"
       height="15"
       x="2.7869844"
       y="3.6716266" />
    <path
       id="rect4995-7-3-6"
       style="fill:#ffffff;fill-opacity:0.66666669;enable-background:new"
       d="M 1.786983 2.671627 L 1.786983 3.671627 L 1.786983 18.671627 L 1.786983 19.671627 L 18.786983 19.671627 L 18.786983 18.671627 L 18.786983 3.671627 L 18.786983 2.671627 L 1.786983 2.671627 z M 2.786983 3.671627 L 17.786983 3.671627 L 17.786983 18.671627 L 2.786983 18.671627 L 2.786983 3.671627 z " />
    <path
       id="path32546"
       style="fill:#ffffff;fill-opacity:0.80000001;stroke-width:0.623609;enable-background:new"
       d="m 7.8090801,6.671627 v 3 h -1 -1 v 6 h 1 4.9999999 1 v -2 h 1 1 v -7 h -1 -4.9999999 z m 1,2 H 13.80908 v 4 h -1 v -3 h -1 -2.9999999 z" />
  </g>
  <g
     id="inactive-center"
     transform="translate(-42.316405,22.315261)"
     style="enable-background:new">
    <path
       id="rect4995-7-4"
       style="fill:#ffffff;fill-opacity:0.4;enable-background:new"
       d="m 2.318857,2.6900993 v 1 15.0000007 1 h 16.999999 v -1 -15.0000007 -1 z m 1,1 H 18.318856 V 18.6901 H 3.318857 Z" />
    <path
       id="rect24289-5"
       style="fill:#ffffff;fill-opacity:0.40000001;stroke-width:0.623609;enable-background:new"
       d="m 8.3007802,6.684739 v 3 h -1 -1 v 6 h 1 4.9999998 1 v -2 h 1 1 v -7 h -1 -4.9999999 z m 0.9999999,2 H 14.30078 v 4 h -1 v -3 h -1 -2.9999999 z" />
  </g>
</svg>
