<?xml version="1.0" encoding="UTF-8" standalone="no"?>
<svg
   id="svg4306"
   width="22"
   height="22"
   version="1.1"
   style="enable-background:new"
   sodipodi:docname="help.svg"
   inkscape:version="1.2.1 (9c6d41e410, 2022-07-14, custom)"
   xmlns:inkscape="http://www.inkscape.org/namespaces/inkscape"
   xmlns:sodipodi="http://sodipodi.sourceforge.net/DTD/sodipodi-0.dtd"
   xmlns="http://www.w3.org/2000/svg"
   xmlns:svg="http://www.w3.org/2000/svg"
   xmlns:rdf="http://www.w3.org/1999/02/22-rdf-syntax-ns#"
   xmlns:cc="http://creativecommons.org/ns#"
   xmlns:dc="http://purl.org/dc/elements/1.1/">
  <metadata
     id="metadata28">
    <rdf:RDF>
      <cc:Work
         rdf:about="">
        <dc:format>image/svg+xml</dc:format>
        <dc:type
           rdf:resource="http://purl.org/dc/dcmitype/StillImage" />
      </cc:Work>
    </rdf:RDF>
  </metadata>
  <defs
     id="defs26" />
  <sodipodi:namedview
     inkscape:document-rotation="0"
     pagecolor="#ffffff"
     bordercolor="#000000"
     borderopacity="1"
     objecttolerance="10"
     gridtolerance="10"
     guidetolerance="10"
     inkscape:pageopacity="0"
     inkscape:pageshadow="2"
     inkscape:window-width="1920"
     inkscape:window-height="997"
     id="namedview24"
     showgrid="false"
     inkscape:zoom="16.000001"
     inkscape:cx="-21.562499"
     inkscape:cy="22.656249"
     inkscape:window-x="0"
     inkscape:window-y="0"
     inkscape:window-maximized="1"
     inkscape:current-layer="g333"
     inkscape:snap-bbox="true"
     inkscape:bbox-nodes="true"
     inkscape:lockguides="false"
     inkscape:pagecheckerboard="0"
     inkscape:showpageshadow="2"
     inkscape:deskcolor="#cccccc">
    <inkscape:grid
       type="xygrid"
       id="grid853"
       originx="-44"
       originy="0" />
  </sodipodi:namedview>
  <style
     type="text/css"
     id="current-color-scheme" />
  <g
     id="active-center"
     transform="translate(-42.874992,-2.125002)"
     style="display:inline;enable-background:new">
    <path
       id="rect4995-7"
       style="fill:#ffffff;fill-opacity:0.3;enable-background:new"
       d="m -41.125008,2.125002 v 1 15 1 h 17 v -1 -15 -1 z m 1,1 h 15 v 15 h -15 z"
       transform="translate(44)" />
    <path
       d="m -31.367982,10.922966 c -0.183557,0 -0.35971,-0.07295 -0.489525,-0.202778 -0.129835,-0.129821 -0.20277,-0.305845 -0.20277,-0.489431 0.08977,-0.87965 0.539025,-1.683086 1.241248,-2.220222 0.430042,-0.429908 0.835709,-0.835718 0.835709,-1.24138 0,-0.494716 -0.263917,-0.951718 -0.692317,-1.199083 -0.4284,-0.247356 -0.95625,-0.247356 -1.38464,0 -0.4284,0.247343 -0.692335,0.704367 -0.692335,1.199083 0,0.247343 -0.13196,0.475862 -0.346164,0.599522 -0.214199,0.123672 -0.477988,0.123672 -0.692188,0 -0.2142,-0.12368 -0.346185,-0.352192 -0.346185,-0.599522 0,-0.989262 0.527715,-1.903468 1.384515,-2.398131 0.856798,-0.49468 1.912498,-0.494717 2.769286,0 0.856791,0.494708 1.38451,1.408869 1.38451,2.398131 -0.08977,0.879647 -0.5389,1.683086 -1.241249,2.22022 -0.429911,0.429908 -0.835595,0.835582 -0.835595,1.241382 0,0.183565 -0.07299,0.359615 -0.20277,0.489431 -0.129825,0.129837 -0.305977,0.202778 -0.48953,0.202778 z"
       id="path509"
       style="fill:#ffffff;fill-opacity:0.57999998;stroke-width:0.0321433;enable-background:new"
       transform="translate(42.874992,2.125002)" />
    <path
       d="m -30.675616,12.307675 c 0,0.382342 -0.310003,0.692325 -0.692323,0.692325 -0.38232,0 -0.692325,-0.310005 -0.692325,-0.692325 0,-0.38232 0.310005,-0.692314 0.692325,-0.692314 0.38232,0 0.692323,0.309994 0.692323,0.692314"
       id="path511"
       style="fill:#ffffff;fill-opacity:0.57999998;stroke-width:0.0321433;enable-background:new"
       transform="translate(42.874992,2.125002)" />
  </g>
  <g
     id="hover-center"
     transform="translate(0.07887268,22.014719)"
     style="display:inline;enable-background:new">
    <rect
       style="fill:#ffffff;fill-opacity:0.18;enable-background:new"
       id="rect20508"
       width="15"
       height="15"
       x="-19.078873"
       y="-21.014719" />
    <path
       id="rect4995-7-3"
       style="fill:#ffffff;fill-opacity:0.61;enable-background:new"
       d="m -20.078873,-22.014719 v 1 15 1 h 17.0000003 v -1 -15 -1 z m 1,1 h 15.0000003 v 15 H -19.078873 Z" />
    <path
       d="m -11.367982,10.922966 c -0.183557,0 -0.35971,-0.07295 -0.489525,-0.202778 -0.129835,-0.129821 -0.20277,-0.305845 -0.20277,-0.489431 0.08977,-0.87965 0.539025,-1.683086 1.241248,-2.220222 0.430042,-0.429908 0.8357086,-0.835718 0.8357086,-1.24138 0,-0.494716 -0.2639166,-0.951718 -0.6923166,-1.199083 -0.4284,-0.247356 -0.95625,-0.247356 -1.38464,0 -0.4284,0.247343 -0.692335,0.704367 -0.692335,1.199083 0,0.247343 -0.13196,0.475862 -0.346164,0.599522 -0.214199,0.123672 -0.477988,0.123672 -0.692188,0 -0.2142,-0.12368 -0.346185,-0.352192 -0.346185,-0.599522 0,-0.989262 0.527715,-1.903468 1.384515,-2.398131 0.856798,-0.49468 1.912498,-0.494717 2.7692856,0 0.8567911,0.494708 1.3845101,1.408869 1.3845101,2.398131 -0.08977,0.879647 -0.5389,1.683086 -1.2412491,2.22022 -0.4299106,0.429908 -0.8355946,0.835582 -0.8355946,1.241382 0,0.183565 -0.07299,0.359615 -0.20277,0.489431 -0.129825,0.129837 -0.305977,0.202778 -0.48953,0.202778 z"
       id="path501"
       style="fill:#ffffff;fill-opacity:0.57999998;stroke-width:0.0321433;enable-background:new"
       transform="translate(-0.07887268,-22.014719)" />
    <path
       d="m -10.675616,12.307675 c 0,0.382342 -0.310003,0.692325 -0.692323,0.692325 -0.38232,0 -0.692325,-0.310005 -0.692325,-0.692325 0,-0.38232 0.310005,-0.692314 0.692325,-0.692314 0.38232,0 0.692323,0.309994 0.692323,0.692314"
       id="path503"
       style="fill:#ffffff;fill-opacity:0.57999998;stroke-width:0.0321433;enable-background:new"
       transform="translate(-0.07887268,-22.014719)" />
  </g>
  <g
     id="pressed-center"
     transform="translate(0,22)"
     style="display:inline;enable-background:new">
    <rect
       style="fill:#b0b0b0;fill-opacity:0.18;enable-background:new"
       id="rect20508-7"
       width="15"
       height="15"
       x="4"
       y="-19" />
    <path
       id="rect4995-7-3-3"
       style="display:inline;fill:#cccccc;fill-opacity:0.61;enable-background:new"
       d="m 3,-20 v 1 15 1 h 17 v -1 -15 -1 z m 1,1 H 19 V -4 H 4 Z" />
    <path
       d="m 11.632018,12.922966 c -0.183557,0 -0.35971,-0.07295 -0.489525,-0.202778 -0.129835,-0.129821 -0.20277,-0.305845 -0.20277,-0.489431 0.08977,-0.87965 0.539025,-1.683086 1.241248,-2.220222 0.430042,-0.429908 0.835709,-0.835718 0.835709,-1.24138 0,-0.494716 -0.263917,-0.951718 -0.692317,-1.199083 -0.4284,-0.247356 -0.95625,-0.247356 -1.38464,0 -0.4284,0.247343 -0.692335,0.704367 -0.692335,1.199083 0,0.247343 -0.13196,0.475862 -0.346164,0.599522 -0.214199,0.123672 -0.477988,0.123672 -0.692188,0 -0.2142,-0.12368 -0.346185,-0.352192 -0.346185,-0.599522 0,-0.989262 0.527715,-1.903468 1.384515,-2.398131 0.856798,-0.49468 1.912498,-0.494717 2.769286,0 0.856791,0.494708 1.38451,1.408869 1.38451,2.398131 -0.08977,0.879647 -0.5389,1.683086 -1.241249,2.22022 -0.429911,0.429908 -0.835595,0.835582 -0.835595,1.241382 0,0.183565 -0.07299,0.359615 -0.20277,0.489431 -0.129825,0.129837 -0.305977,0.202778 -0.48953,0.202778 z"
       id="path517"
       style="fill:#ffffff;fill-opacity:0.57999998;stroke-width:0.0321433;enable-background:new"
       transform="translate(0,-22)" />
    <path
       d="M 12.324384,14.307675 C 12.324384,14.690017 12.014381,15 11.632061,15 c -0.38232,0 -0.692325,-0.310005 -0.692325,-0.692325 0,-0.38232 0.310005,-0.692314 0.692325,-0.692314 0.38232,0 0.692323,0.309994 0.692323,0.692314"
       id="path519"
       style="fill:#ffffff;fill-opacity:0.57999998;stroke-width:0.0321433;enable-background:new"
       transform="translate(0,-22)" />
  </g>
  <g
     id="pressed-inactive-center"
     transform="translate(-0.02999902,21.916588)"
     style="display:inline;enable-background:new">
    <rect
       style="fill:#b0b0b0;fill-opacity:0.18;enable-background:new"
       id="rect20508-7-5"
       width="15"
       height="15"
       x="4.0299993"
       y="26.083412"
       transform="translate(0,-22)" />
    <path
       id="rect4995-7-3-3-2"
       style="fill:#cccccc;fill-opacity:0.61;enable-background:new"
       inkscape:label="rect4995-7-3-3-2"
       d="m 3.029999,25.083412 v 1 15 1 h 17 v -1 -15 -1 z m 1,1 h 15 v 15 h -15 z"
       transform="translate(0,-22)" />
    <path
       d="m 11.632018,35.922966 c -0.183557,0 -0.35971,-0.07295 -0.489525,-0.202778 -0.129835,-0.129821 -0.20277,-0.305845 -0.20277,-0.489431 0.08977,-0.87965 0.539025,-1.683086 1.241248,-2.220222 0.430042,-0.429908 0.835709,-0.835718 0.835709,-1.24138 0,-0.494716 -0.263917,-0.951718 -0.692317,-1.199083 -0.4284,-0.247356 -0.95625,-0.247356 -1.38464,0 -0.4284,0.247343 -0.692335,0.704367 -0.692335,1.199083 0,0.247343 -0.13196,0.475862 -0.346164,0.599522 -0.214199,0.123672 -0.477988,0.123672 -0.692188,0 -0.2142,-0.12368 -0.346185,-0.352192 -0.346185,-0.599522 0,-0.989262 0.527715,-1.903468 1.384515,-2.398131 0.856798,-0.49468 1.912498,-0.494717 2.769286,0 0.856791,0.494708 1.38451,1.408869 1.38451,2.398131 -0.08977,0.879647 -0.5389,1.683086 -1.241249,2.22022 -0.429911,0.429908 -0.835595,0.835582 -0.835595,1.241382 0,0.183565 -0.07299,0.359615 -0.20277,0.489431 -0.129825,0.129837 -0.305977,0.202778 -0.48953,0.202778 z"
       id="path513"
       style="fill:#ffffff;fill-opacity:0.57999998;stroke-width:0.0321433;enable-background:new"
       transform="translate(0.02999902,-21.916588)" />
    <path
       d="M 12.324384,37.307675 C 12.324384,37.690017 12.014381,38 11.632061,38 c -0.38232,0 -0.692325,-0.310005 -0.692325,-0.692325 0,-0.38232 0.310005,-0.692314 0.692325,-0.692314 0.38232,0 0.692323,0.309994 0.692323,0.692314"
       id="path515"
       style="fill:#ffffff;fill-opacity:0.57999998;stroke-width:0.0321433;enable-background:new"
       transform="translate(0.02999902,-21.916588)" />
  </g>
  <g
     id="hover-inactive-center"
     transform="translate(-21.786983,22.328373)"
     style="display:inline;enable-background:new">
    <rect
       style="fill:#ffffff;fill-opacity:0.15;enable-background:new"
       id="rect20508-0"
       width="15"
       height="15"
       x="2.7869844"
       y="3.6716266" />
    <path
       id="rect4995-7-3-6"
       style="fill:#ffffff;fill-opacity:0.5;enable-background:new"
       d="m 1.786983,2.671627 v 1 15 1 h 17 v -1 -15 -1 z m 1,1 h 15 v 15 h -15 z" />
    <path
       d="m -11.367982,35.922966 c -0.183557,0 -0.35971,-0.07295 -0.489525,-0.202778 -0.129835,-0.129821 -0.20277,-0.305845 -0.20277,-0.489431 0.08977,-0.87965 0.539025,-1.683086 1.241248,-2.220222 0.430042,-0.429908 0.8357086,-0.835718 0.8357086,-1.24138 0,-0.494716 -0.2639166,-0.951718 -0.6923166,-1.199083 -0.4284,-0.247356 -0.95625,-0.247356 -1.38464,0 -0.4284,0.247343 -0.692335,0.704367 -0.692335,1.199083 0,0.247343 -0.13196,0.475862 -0.346164,0.599522 -0.214199,0.123672 -0.477988,0.123672 -0.692188,0 -0.2142,-0.12368 -0.346185,-0.352192 -0.346185,-0.599522 0,-0.989262 0.527715,-1.903468 1.384515,-2.398131 0.856798,-0.49468 1.912498,-0.494717 2.7692856,0 0.8567911,0.494708 1.3845101,1.408869 1.3845101,2.398131 -0.08977,0.879647 -0.5389,1.683086 -1.2412491,2.22022 -0.4299106,0.429908 -0.8355946,0.835582 -0.8355946,1.241382 0,0.183565 -0.07299,0.359615 -0.20277,0.489431 -0.129825,0.129837 -0.305977,0.202778 -0.48953,0.202778 z"
       id="path2-35"
       style="fill:#ffffff;fill-opacity:0.57999998;stroke-width:0.0321433;enable-background:new"
       transform="translate(21.786983,-22.328373)" />
    <path
       d="m -10.675616,37.307675 c 0,0.382342 -0.310003,0.692325 -0.692323,0.692325 -0.38232,0 -0.692325,-0.310005 -0.692325,-0.692325 0,-0.38232 0.310005,-0.692314 0.692325,-0.692314 0.38232,0 0.692323,0.309994 0.692323,0.692314"
       id="path4-62"
       style="fill:#ffffff;fill-opacity:0.57999998;stroke-width:0.0321433;enable-background:new"
       transform="translate(21.786983,-22.328373)" />
  </g>
  <g
     id="g333"
     transform="translate(-42.874992,22.874998)"
     style="display:inline;enable-background:new"
     inkscape:label="inactive-center">
    <path
       id="rect323"
       style="fill:#ffffff;fill-opacity:0.2;enable-background:new"
       d="m -41.125008,2.125002 v 1 15 1 h 17 v -1 -15 -1 z m 1,1 h 15 v 15 h -15 z"
       transform="translate(44)" />
    <path
       d="m -31.367982,35.922966 c -0.183557,0 -0.35971,-0.07295 -0.489525,-0.202778 -0.129835,-0.129821 -0.20277,-0.305845 -0.20277,-0.489431 0.08977,-0.87965 0.539025,-1.683086 1.241248,-2.220222 0.430042,-0.429908 0.835709,-0.835718 0.835709,-1.24138 0,-0.494716 -0.263917,-0.951718 -0.692317,-1.199083 -0.4284,-0.247356 -0.95625,-0.247356 -1.38464,0 -0.4284,0.247343 -0.692335,0.704367 -0.692335,1.199083 0,0.247343 -0.13196,0.475862 -0.346164,0.599522 -0.214199,0.123672 -0.477988,0.123672 -0.692188,0 -0.2142,-0.12368 -0.346185,-0.352192 -0.346185,-0.599522 0,-0.989262 0.527715,-1.903468 1.384515,-2.398131 0.856798,-0.49468 1.912498,-0.494717 2.769286,0 0.856791,0.494708 1.38451,1.408869 1.38451,2.398131 -0.08977,0.879647 -0.5389,1.683086 -1.241249,2.22022 -0.429911,0.429908 -0.835595,0.835582 -0.835595,1.241382 0,0.183565 -0.07299,0.359615 -0.20277,0.489431 -0.129825,0.129837 -0.305977,0.202778 -0.48953,0.202778 z"
       id="path505"
       style="fill:#ffffff;fill-opacity:0.40000001;stroke-width:0.0321433;enable-background:new"
       transform="translate(42.874992,-22.874998)" />
    <path
       d="m -30.675616,37.307675 c 0,0.382342 -0.310003,0.692325 -0.692323,0.692325 -0.38232,0 -0.692325,-0.310005 -0.692325,-0.692325 0,-0.38232 0.310005,-0.692314 0.692325,-0.692314 0.38232,0 0.692323,0.309994 0.692323,0.692314"
       id="path507"
       style="fill:#ffffff;fill-opacity:0.40000001;stroke-width:0.0321433;enable-background:new"
       transform="translate(42.874992,-22.874998)" />
  </g>
</svg>
