<?xml version="1.0" encoding="UTF-8" standalone="no"?>
<svg
   id="svg4306"
   width="22"
   height="22"
   version="1.1"
   style="enable-background:new"
   sodipodi:docname="close.svg"
   inkscape:version="1.2.1 (9c6d41e410, 2022-07-14, custom)"
   xmlns:inkscape="http://www.inkscape.org/namespaces/inkscape"
   xmlns:sodipodi="http://sodipodi.sourceforge.net/DTD/sodipodi-0.dtd"
   xmlns="http://www.w3.org/2000/svg"
   xmlns:svg="http://www.w3.org/2000/svg"
   xmlns:rdf="http://www.w3.org/1999/02/22-rdf-syntax-ns#"
   xmlns:cc="http://creativecommons.org/ns#"
   xmlns:dc="http://purl.org/dc/elements/1.1/">
  <g
     id="pressed-inactive-center">
    <rect
       style="enable-background:new;display:inline;fill:#662715;fill-opacity:1"
       id="rect13901-6-2"
       width="15"
       height="15.000001"
       x="4.4374962"
       y="25.5"
       transform="translate(-0.0625,0.4375)" />
    <path
       d="m 16.133385,35.727305 -2.727666,-2.727559 2.7268,-2.726918 c 0.405604,-0.40572 0.405604,-1.063202 0,-1.46875 -0.405676,-0.405379 -1.063227,-0.405379 -1.468333,0 l -2.727023,2.727131 -2.7270158,-2.727131 c -0.405359,-0.405379 -1.062831,-0.40555 -1.468519,1.64e-4 -0.40545,0.405465 -0.40545,1.063033 1.77e-4,1.468582 l 2.7270038,2.726918 -2.7272258,2.72756 c -0.405449,0.405462 -0.405449,1.063114 0,1.468494 0.202881,0.202772 0.468497,0.304204 0.73433,0.304204 0.265845,0 0.531461,-0.101428 0.734342,-0.304204 l 2.7272318,-2.727558 2.727448,2.727558 C 14.867737,37.398568 15.133433,37.5 15.399115,37.5 c 0.265687,0 0.531635,-0.101428 0.734185,-0.304204 0.405595,-0.40538 0.405595,-1.063032 0,-1.468494 z"
       id="path3490-3-6"
       style="enable-background:new;display:inline;fill:#afafaf;fill-opacity:0.58;stroke-width:0.021328"
       transform="translate(-0.0625,0.4375)" />
    <path
       id="rect4995-1"
       style="enable-background:new;display:inline;fill:#ffffff;fill-opacity:0.3"
       d="M 3.4375 24.5 L 3.4375 25.5 L 3.4375 40.5 L 3.4375 41.5 L 20.4375 41.5 L 20.4375 40.5 L 20.4375 25.5 L 20.4375 24.5 L 3.4375 24.5 z M 4.4375 25.5 L 19.4375 25.5 L 19.4375 40.5 L 4.4375 40.5 L 4.4375 25.5 z "
       transform="translate(-0.0625,0.4375)" />
  </g>
  <g
     id="hover-center"
     transform="translate(20,0.1875)">
    <rect
       style="enable-background:new;fill:#b82b00;fill-opacity:1"
       id="rect13901"
       width="15"
       height="15.000001"
       x="-20.3125"
       y="3.249999"
       transform="translate(-20,-0.1875)" />
    <path
       d="m 15.383385,13.289805 -2.727666,-2.727559 2.7268,-2.7269181 c 0.405604,-0.40572 0.405604,-1.063202 0,-1.46875 -0.405676,-0.4053793 -1.063227,-0.4053793 -1.468333,0 L 11.187163,9.093709 8.4601465,6.3665779 c -0.405359,-0.4053793 -1.062831,-0.4055502 -1.468519,1.64e-4 -0.40545,0.405465 -0.40545,1.063033 1.77e-4,1.468582 l 2.727004,2.7269181 -2.727226,2.72756 c -0.405449,0.405462 -0.405449,1.063114 0,1.468494 0.202881,0.202772 0.468497,0.304204 0.73433,0.304204 0.265845,0 0.531461,-0.101428 0.734342,-0.304204 l 2.7272325,-2.727558 2.727448,2.727558 c 0.202802,0.202772 0.468498,0.304204 0.73418,0.304204 0.265687,0 0.531635,-0.101428 0.734185,-0.304204 0.405595,-0.40538 0.405595,-1.063032 0,-1.468494 z"
       id="path13779"
       style="fill:#ffffff;fill-opacity:0.81694913;stroke-width:0.021328;enable-background:new"
       transform="translate(-44)" />
    <path
       id="rect13781"
       style="fill:#ffffff;fill-opacity:0.61000001;enable-background:new"
       d="M 2.6875 2.0625 L 2.6875 3.0625 L 2.6875 18.0625 L 2.6875 19.0625 L 19.6875 19.0625 L 19.6875 18.0625 L 19.6875 3.0625 L 19.6875 2.0625 L 2.6875 2.0625 z M 3.6875 3.0625 L 18.6875 3.0625 L 18.6875 18.0625 L 3.6875 18.0625 L 3.6875 3.0625 z "
       transform="translate(-44)" />
  </g>
  <g
     id="active-center"
     transform="translate(-45.891539,0.1875)">
    <path
       d="m 15.383385,13.289805 -2.727666,-2.727559 2.7268,-2.7269181 c 0.405604,-0.40572 0.405604,-1.063202 0,-1.46875 -0.405676,-0.4053793 -1.063227,-0.4053793 -1.468333,0 L 11.187163,9.093709 8.4601465,6.3665779 c -0.405359,-0.4053793 -1.062831,-0.4055502 -1.468519,1.64e-4 -0.40545,0.405465 -0.40545,1.063033 1.77e-4,1.468582 l 2.727004,2.7269181 -2.727226,2.72756 c -0.405449,0.405462 -0.405449,1.063114 0,1.468494 0.202881,0.202772 0.468497,0.304204 0.73433,0.304204 0.265845,0 0.531461,-0.101428 0.734342,-0.304204 l 2.7272325,-2.727558 2.727448,2.727558 c 0.202802,0.202772 0.468498,0.304204 0.73418,0.304204 0.265687,0 0.531635,-0.101428 0.734185,-0.304204 0.405595,-0.40538 0.405595,-1.063032 0,-1.468494 z"
       id="path3490-3-36"
       style="fill:#ffffff;fill-opacity:0.58;stroke-width:0.021328;enable-background:new" />
    <path
       id="rect4995-7"
       style="fill:#ffffff;fill-opacity:0.3;enable-background:new"
       d="M 2.688414 2.0625 L 2.688414 3.0625 L 2.688414 18.0625 L 2.688414 19.0625 L 19.688414 19.0625 L 19.688414 18.0625 L 19.688414 3.0625 L 19.688414 2.0625 L 2.688414 2.0625 z M 3.688414 3.0625 L 18.688414 3.0625 L 18.688414 18.0625 L 3.688414 18.0625 L 3.688414 3.0625 z " />
  </g>
  <metadata
     id="metadata40">
    <rdf:RDF>
      <cc:Work
         rdf:about="">
        <dc:format>image/svg+xml</dc:format>
        <dc:type
           rdf:resource="http://purl.org/dc/dcmitype/StillImage" />
      </cc:Work>
    </rdf:RDF>
  </metadata>
  <defs
     id="defs38" />
  <sodipodi:namedview
     inkscape:document-rotation="0"
     pagecolor="#7a7a7a"
     bordercolor="#000000"
     borderopacity="1"
     objecttolerance="10"
     gridtolerance="10"
     guidetolerance="10"
     inkscape:pageopacity="0"
     inkscape:pageshadow="2"
     inkscape:window-width="1920"
     inkscape:window-height="997"
     id="namedview36"
     showgrid="false"
     inkscape:snap-bbox="true"
     inkscape:bbox-nodes="true"
     inkscape:zoom="16"
     inkscape:cx="-7.625"
     inkscape:cy="26.96875"
     inkscape:window-x="0"
     inkscape:window-y="0"
     inkscape:window-maximized="1"
     inkscape:current-layer="pressed-inactive-center"
     inkscape:lockguides="false"
     showguides="false"
     inkscape:pagecheckerboard="0"
     inkscape:showpageshadow="2"
     inkscape:deskcolor="#cccccc">
    <inkscape:grid
       type="xygrid"
       id="grid865"
       originx="-44"
       originy="0"
       visible="false"
       dotted="true" />
  </sodipodi:namedview>
  <style
     type="text/css"
     id="current-color-scheme" />
  <g
     id="inactive-center"
     transform="translate(-44,22)">
    <path
       d="m 15.524924,36.258555 -2.727666,-2.727559 2.7268,-2.726918 c 0.405604,-0.40572 0.405604,-1.063202 0,-1.46875 -0.405676,-0.405379 -1.063227,-0.405379 -1.468333,0 l -2.727023,2.727131 -2.7270158,-2.727131 c -0.405359,-0.405379 -1.062831,-0.40555 -1.468519,1.64e-4 -0.40545,0.405465 -0.40545,1.063033 1.77e-4,1.468582 l 2.727004,2.726918 -2.727226,2.72756 c -0.405449,0.405462 -0.405449,1.063114 0,1.468494 0.202881,0.202772 0.468497,0.304204 0.73433,0.304204 0.265845,0 0.531461,-0.101428 0.734341,-0.304204 l 2.7272328,-2.727558 2.727448,2.727558 c 0.202802,0.202772 0.468498,0.304204 0.73418,0.304204 0.265687,0 0.531635,-0.101428 0.734185,-0.304204 0.405595,-0.40538 0.405595,-1.063032 0,-1.468494 z"
       id="path3490-3-36-2"
       style="enable-background:new;fill:#ffffff;fill-opacity:0.40000001;stroke-width:0.021328"
       transform="translate(-1.891539,-21.8125)" />
    <path
       id="rect4995-7-9"
       style="enable-background:new;fill:#ffffff;fill-opacity:0.2"
       d="M 2.829039 25.03125 L 2.829039 26.03125 L 2.829039 41.03125 L 2.829039 42.03125 L 19.829039 42.03125 L 19.829039 41.03125 L 19.829039 26.03125 L 19.829039 25.03125 L 2.829039 25.03125 z M 3.829039 26.03125 L 18.829039 26.03125 L 18.829039 41.03125 L 3.829039 41.03125 L 3.829039 26.03125 z "
       transform="translate(-1.891539,-21.8125)" />
  </g>
  <g
     id="pressed-center"
     transform="translate(-0.0625,0.4375)"
     style="display:inline">
    <rect
       style="fill:#662715;fill-opacity:1;enable-background:new"
       id="rect13901-6"
       width="15"
       height="15.000001"
       x="-16.125004"
       y="3.3749998"
       transform="translate(20.0625,-0.25)" />
    <path
       d="m 15.633385,13.352305 -2.727666,-2.727559 2.7268,-2.726918 c 0.405604,-0.40572 0.405604,-1.063202 0,-1.46875 -0.405676,-0.4053793 -1.063227,-0.4053793 -1.468333,0 L 11.437163,9.156209 8.7101472,6.429078 c -0.405359,-0.4053793 -1.062831,-0.4055502 -1.468519,1.64e-4 -0.40545,0.405465 -0.40545,1.063033 1.77e-4,1.468582 l 2.727004,2.726918 -2.727226,2.72756 c -0.405449,0.405462 -0.405449,1.063114 0,1.468494 0.202881,0.202772 0.468497,0.304204 0.73433,0.304204 0.265845,0 0.531461,-0.101428 0.734342,-0.304204 l 2.7272318,-2.727558 2.727448,2.727558 c 0.202802,0.202772 0.468498,0.304204 0.73418,0.304204 0.265687,0 0.531635,-0.101428 0.734185,-0.304204 0.405595,-0.40538 0.405595,-1.063032 0,-1.468494 z"
       id="path3490-3"
       style="fill:#afafaf;fill-opacity:0.58;stroke-width:0.021328;enable-background:new" />
    <path
       id="rect4995"
       style="fill:#ffffff;fill-opacity:0.3"
       d="M 2.9375 2.125 L 2.9375 3.125 L 2.9375 18.125 L 2.9375 19.125 L 19.9375 19.125 L 19.9375 18.125 L 19.9375 3.125 L 19.9375 2.125 L 2.9375 2.125 z M 3.9375 3.125 L 18.9375 3.125 L 18.9375 18.125 L 3.9375 18.125 L 3.9375 3.125 z " />
  </g>
  <g
     id="hover-inactive-center">
    <rect
       style="fill:#b82b00;fill-opacity:0.80000001;enable-background:new"
       id="rect13901-0"
       width="15"
       height="15.000001"
       x="-20.000002"
       y="26.0625" />
    <path
       d="m -8.3041158,36.289805 -2.7276662,-2.727559 2.7268002,-2.726918 c 0.405604,-0.40572 0.405604,-1.063202 0,-1.46875 -0.405676,-0.405379 -1.063227,-0.405379 -1.468333,0 l -2.7270232,2.727131 -2.727017,-2.727131 c -0.405359,-0.405379 -1.062831,-0.40555 -1.468519,1.64e-4 -0.405449,0.405465 -0.405449,1.063033 1.77e-4,1.468582 l 2.727004,2.726918 -2.727225,2.72756 c -0.405449,0.405462 -0.405449,1.063114 0,1.468494 0.20288,0.202772 0.468497,0.304204 0.734329,0.304204 0.265846,0 0.531462,-0.101428 0.734342,-0.304204 l 2.727233,-2.727558 2.7274482,2.727558 c 0.202802,0.202772 0.468498,0.304204 0.73418,0.304204 0.265687,0 0.531635,-0.101428 0.734185,-0.304204 0.405595,-0.40538 0.405595,-1.063032 0,-1.468494 z"
       id="path13779-9"
       style="fill:#ffffff;fill-opacity:0.81999999;stroke-width:0.021328;enable-background:new" />
    <path
       id="rect13781-3"
       style="fill:#ffffff;fill-opacity:0.5;enable-background:new"
       d="M -21 25.0625 L -21 26.0625 L -21 41.0625 L -21 42.0625 L -4 42.0625 L -4 41.0625 L -4 26.0625 L -4 25.0625 L -21 25.0625 z M -20 26.0625 L -5 26.0625 L -5 41.0625 L -20 41.0625 L -20 26.0625 z " />
  </g>
</svg>
